# xmcd
#
# Track frame offsets:
#	150
#	12042
#	31310
#	47355
#	63567
#	77105
#	87770
#	116635
#	124512
#	145195
#	157237
#	165587
#	173295
#	196760
#	241242
#	269620
#	289090
#	317697
#
# Disc length: 4424 seconds
#
# Revision: 2
# Processed by: cddbd v1.4PL0 Copyright (c) Steve Scherf et al.
# Submitted via: audiograbber 1.80
#
DISCID=e7114612
DTITLE=B.B. King - Live at the Regal/Live in Cook County Jail
DYEAR=1900
DGENRE=
TTITLE0=Every Day I Have the Blues
TTITLE1=Sweet Little Angel
TTITLE2=It's My Own Fault
TTITLE3=How Blue Can You Get
TTITLE4=Please Love Me
TTITLE5=You Upset Me Baby
TTITLE6=Worry, Worry
TTITLE7=Woke Up This Mornin'
TTITLE8=You Done Lost Your Good Thing Now
TTITLE9=Help the Poor
TTITLE10=Introduction
TTITLE11=Every Day I Have the Blues
TTITLE12=How Blue Can You Get
TTITLE13=Worry, Worry, Worry
TTITLE14=3 O'Clock Blues/Darlin' You Know I Love You
TTITLE15=Sweet Sixteen
TTITLE16=The Thrill Is Gone
TTITLE17=Please Accept My Love
EXTD=This is a two-fer of his two classic live recordings of 1964 and 1970, res
EXTD=pectively.  Tracks 1-10 are from "Regal" - 11-18, "Jail".
EXTT0=
EXTT1=
EXTT2=
EXTT3=
EXTT4=
EXTT5=
EXTT6=
EXTT7=
EXTT8=
EXTT9=
EXTT10=
EXTT11=
EXTT12=
EXTT13=
EXTT14=
EXTT15=
EXTT16=
EXTT17=
PLAYORDER=
